<svg width="34" height="47" viewBox="0 0 34 47" fill="none" xmlns="http://www.w3.org/2000/svg">
<path d="M16.6685 5.94795L8.667 13.0667V20.7499C8.667 20.9489 8.74016 21.1396 8.87038 21.2803C9.0006 21.421 9.17722 21.5 9.36139 21.5L14.2247 21.4864C14.4083 21.4854 14.584 21.4059 14.7135 21.2654C14.843 21.1248 14.9156 20.9346 14.9156 20.7363V16.2494C14.9156 16.0505 14.9888 15.8597 15.119 15.719C15.2493 15.5784 15.4259 15.4993 15.61 15.4993H18.3876C18.5718 15.4993 18.7484 15.5784 18.8786 15.719C19.0088 15.8597 19.082 16.0505 19.082 16.2494V20.733C19.0817 20.8317 19.0995 20.9295 19.1342 21.0208C19.169 21.1121 19.2201 21.195 19.2846 21.2649C19.3491 21.3348 19.4258 21.3903 19.5101 21.4281C19.5945 21.466 19.685 21.4855 19.7764 21.4855L24.638 21.5C24.8222 21.5 24.9988 21.421 25.129 21.2803C25.2592 21.1396 25.3324 20.9489 25.3324 20.7499V13.0616L17.3326 5.94795C17.2385 5.86606 17.1214 5.82141 17.0006 5.82141C16.8798 5.82141 16.7626 5.86606 16.6685 5.94795ZM29.3078 10.7865L25.6796 7.55594V1.06256C25.6796 0.913362 25.6247 0.770272 25.527 0.664771C25.4294 0.55927 25.2969 0.5 25.1588 0.5H22.7284C22.5903 0.5 22.4578 0.55927 22.3602 0.664771C22.2625 0.770272 22.2076 0.913362 22.2076 1.06256V4.46654L18.3221 1.01334C17.9492 0.681886 17.4813 0.500663 16.9984 0.500663C16.5155 0.500663 16.0476 0.681886 15.6747 1.01334L4.689 10.7865C4.63627 10.8335 4.59264 10.8914 4.56061 10.9567C4.52857 11.022 4.50877 11.0935 4.50232 11.1671C4.49587 11.2406 4.50291 11.3149 4.52302 11.3855C4.54314 11.4561 4.57595 11.5218 4.61956 11.5787L5.72625 13.032C5.76975 13.0892 5.82326 13.1365 5.8837 13.1712C5.94415 13.206 6.01035 13.2276 6.07852 13.2347C6.14669 13.2418 6.21548 13.2343 6.28096 13.2126C6.34645 13.1909 6.40733 13.1555 6.46013 13.1084L16.6685 4.02586C16.7626 3.94397 16.8798 3.89932 17.0006 3.89932C17.1214 3.89932 17.2385 3.94397 17.3326 4.02586L27.5414 13.1084C27.5941 13.1556 27.6549 13.191 27.7203 13.2127C27.7857 13.2345 27.8544 13.2421 27.9225 13.2351C27.9906 13.2281 28.0568 13.2067 28.1173 13.1721C28.1777 13.1375 28.2313 13.0904 28.2749 13.0334L29.3815 11.5801C29.4251 11.5229 29.4578 11.4569 29.4777 11.3859C29.4975 11.315 29.5043 11.2405 29.4974 11.1667C29.4905 11.093 29.4703 11.0214 29.4377 10.9562C29.4052 10.8909 29.361 10.8332 29.3078 10.7865Z" fill="#979797"/>
<path d="M0.958807 43.5V34.7727H2.27557V38.5653H6.62642V34.7727H7.94744V43.5H6.62642V39.6946H2.27557V43.5H0.958807ZM12.5199 43.6321C11.9063 43.6321 11.3707 43.4915 10.9134 43.2102C10.456 42.929 10.1009 42.5355 9.84801 42.0298C9.59517 41.5241 9.46875 40.9332 9.46875 40.2571C9.46875 39.5781 9.59517 38.9844 9.84801 38.4759C10.1009 37.9673 10.456 37.5724 10.9134 37.2912C11.3707 37.0099 11.9063 36.8693 12.5199 36.8693C13.1335 36.8693 13.669 37.0099 14.1264 37.2912C14.5838 37.5724 14.9389 37.9673 15.1918 38.4759C15.4446 38.9844 15.571 39.5781 15.571 40.2571C15.571 40.9332 15.4446 41.5241 15.1918 42.0298C14.9389 42.5355 14.5838 42.929 14.1264 43.2102C13.669 43.4915 13.1335 43.6321 12.5199 43.6321ZM12.5241 42.5625C12.9219 42.5625 13.2514 42.4574 13.5128 42.2472C13.7741 42.0369 13.9673 41.7571 14.0923 41.4077C14.2202 41.0582 14.2841 40.6733 14.2841 40.2528C14.2841 39.8352 14.2202 39.4517 14.0923 39.1023C13.9673 38.75 13.7741 38.4673 13.5128 38.2543C13.2514 38.0412 12.9219 37.9347 12.5241 37.9347C12.1236 37.9347 11.7912 38.0412 11.527 38.2543C11.2656 38.4673 11.071 38.75 10.9432 39.1023C10.8182 39.4517 10.7557 39.8352 10.7557 40.2528C10.7557 40.6733 10.8182 41.0582 10.9432 41.4077C11.071 41.7571 11.2656 42.0369 11.527 42.2472C11.7912 42.4574 12.1236 42.5625 12.5241 42.5625ZM16.9933 43.5V36.9545H18.2163V38.0199H18.2972C18.4336 37.6591 18.6566 37.3778 18.9663 37.1761C19.2759 36.9716 19.6467 36.8693 20.0785 36.8693C20.516 36.8693 20.8825 36.9716 21.1779 37.1761C21.4762 37.3807 21.6964 37.6619 21.8384 38.0199H21.9066C22.0629 37.6705 22.3114 37.392 22.6523 37.1847C22.9933 36.9744 23.3995 36.8693 23.8711 36.8693C24.4648 36.8693 24.9492 37.0554 25.3242 37.4276C25.7021 37.7997 25.891 38.3608 25.891 39.1108V43.5H24.6168V39.2301C24.6168 38.7869 24.4961 38.4659 24.2546 38.267C24.0131 38.0682 23.7248 37.9688 23.3896 37.9688C22.9748 37.9688 22.6523 38.0966 22.4222 38.3523C22.1921 38.6051 22.0771 38.9304 22.0771 39.3281V43.5H20.8072V39.1491C20.8072 38.794 20.6964 38.5085 20.4748 38.2926C20.2532 38.0767 19.9648 37.9688 19.6097 37.9688C19.3683 37.9688 19.1452 38.0327 18.9407 38.1605C18.739 38.2855 18.5756 38.4602 18.4506 38.6847C18.3285 38.9091 18.2674 39.169 18.2674 39.4645V43.5H16.9933ZM30.4197 43.6321C29.7749 43.6321 29.2195 43.4943 28.7536 43.2188C28.2905 42.9403 27.9325 42.5497 27.6797 42.0469C27.4297 41.5412 27.3047 40.9489 27.3047 40.2699C27.3047 39.5994 27.4297 39.0085 27.6797 38.4972C27.9325 37.9858 28.2848 37.5866 28.7365 37.2997C29.1911 37.0128 29.7223 36.8693 30.3303 36.8693C30.6996 36.8693 31.0575 36.9304 31.4041 37.0526C31.7507 37.1747 32.0618 37.3665 32.3374 37.6278C32.6129 37.8892 32.8303 38.2287 32.9893 38.6463C33.1484 39.0611 33.228 39.5653 33.228 40.1591V40.6108H28.0249V39.6562H31.9794C31.9794 39.321 31.9112 39.0241 31.7749 38.7656C31.6385 38.5043 31.4467 38.2983 31.1996 38.1477C30.9553 37.9972 30.6683 37.9219 30.3388 37.9219C29.9808 37.9219 29.6683 38.0099 29.4013 38.1861C29.1371 38.3594 28.9325 38.5866 28.7876 38.8679C28.6456 39.1463 28.5746 39.4489 28.5746 39.7756V40.5213C28.5746 40.9588 28.6513 41.331 28.8047 41.6378C28.9609 41.9446 29.1783 42.179 29.4567 42.3409C29.7351 42.5 30.0604 42.5795 30.4325 42.5795C30.674 42.5795 30.8942 42.5455 31.093 42.4773C31.2919 42.4062 31.4638 42.3011 31.6087 42.1619C31.7536 42.0227 31.8643 41.8509 31.9411 41.6463L33.147 41.8636C33.0504 42.2187 32.8771 42.5298 32.6271 42.7969C32.38 43.0611 32.0689 43.267 31.6939 43.4148C31.3217 43.5597 30.897 43.6321 30.4197 43.6321Z" fill="#3E3E3E"/>
</svg>
