<svg width="38" height="37" viewBox="0 0 38 37" fill="none" xmlns="http://www.w3.org/2000/svg">
<path d="M24.25 32.1451C26.7822 32.4076 30.2 33.2196 32.0165 30.9026C33 29.6479 33 27.7352 33 23.9115V13.0862C33 9.26083 33 7.34987 32.0165 6.09515C30.2 3.7782 26.784 4.59018 24.25 4.85267M19 20.2488V16.7489M31.25 32.0208H36.5M1.5 32.4986H6.75M5 13.606C5 9.97831 5 8.1636 5.6265 6.69188C6.13407 5.47748 6.95844 4.42165 8.0135 3.6347C9.25775 2.71422 10.929 2.38873 14.2697 1.73949C17.7435 1.06576 19.4795 0.728013 20.8323 1.267C21.9742 1.73096 22.9211 2.57465 23.5133 3.6557C24.25 4.98042 24.25 6.86688 24.25 10.6415V26.3597C24.25 30.1326 24.25 32.0191 23.5133 33.3421C22.9218 34.4244 21.9748 35.2694 20.8323 35.7343C19.4795 36.2715 17.7435 35.9337 14.2697 35.26C10.9272 34.6108 9.25775 34.2853 8.0135 33.3648C6.95844 32.5779 6.13407 31.522 5.6265 30.3076C5 28.8324 5 27.0212 5 23.3918V13.606Z" stroke="black" stroke-width="1.5" stroke-linecap="round" stroke-linejoin="round"/>
</svg>
