<svg width="34" height="50" viewBox="0 0 34 50" fill="none" xmlns="http://www.w3.org/2000/svg">
<path d="M24.082 0C26.5715 0 28.5898 1.62647 28.5898 3.63281V4.35938H26.8711L24.3486 25.4297H10.0996L7.39746 4.35938H5.4082V3.63281C5.40823 1.62647 7.42658 0 9.91602 0H24.082ZM17.1279 8.71875C14.6385 8.71875 12.6202 10.3453 12.6201 12.3516C12.6201 14.3579 14.6385 15.9844 17.1279 15.9844C19.6174 15.9844 21.6357 14.3579 21.6357 12.3516C21.6356 10.3453 19.6173 8.71876 17.1279 8.71875Z" fill="#0C7A41"/>
<path d="M8.53977 42.8942C8.53977 43.826 8.36932 44.6271 8.02841 45.2976C7.6875 45.9652 7.22017 46.4794 6.62642 46.8402C6.03551 47.1982 5.36364 47.3771 4.6108 47.3771C3.85511 47.3771 3.1804 47.1982 2.58665 46.8402C1.99574 46.4794 1.52983 45.9638 1.18892 45.2933C0.848011 44.6229 0.677557 43.8232 0.677557 42.8942C0.677557 41.9624 0.848011 41.1626 1.18892 40.495C1.52983 39.8246 1.99574 39.3104 2.58665 38.9524C3.1804 38.5916 3.85511 38.4112 4.6108 38.4112C5.36364 38.4112 6.03551 38.5916 6.62642 38.9524C7.22017 39.3104 7.6875 39.8246 8.02841 40.495C8.36932 41.1626 8.53977 41.9624 8.53977 42.8942ZM7.2358 42.8942C7.2358 42.1839 7.12074 41.5859 6.89062 41.1001C6.66335 40.6115 6.35085 40.2422 5.95312 39.9922C5.55824 39.7393 5.1108 39.6129 4.6108 39.6129C4.10795 39.6129 3.65909 39.7393 3.2642 39.9922C2.86932 40.2422 2.55682 40.6115 2.3267 41.1001C2.09943 41.5859 1.9858 42.1839 1.9858 42.8942C1.9858 43.6044 2.09943 44.2038 2.3267 44.6925C2.55682 45.1783 2.86932 45.5476 3.2642 45.8004C3.65909 46.0504 4.10795 46.1754 4.6108 46.1754C5.1108 46.1754 5.55824 46.0504 5.95312 45.8004C6.35085 45.5476 6.66335 45.1783 6.89062 44.6925C7.12074 44.2038 7.2358 43.6044 7.2358 42.8942ZM10.0792 47.2578V40.7124H11.3107V41.7521H11.3789C11.4982 41.3999 11.7085 41.1229 12.0096 40.9212C12.3136 40.7166 12.6573 40.6143 13.0408 40.6143C13.1204 40.6143 13.2141 40.6172 13.3221 40.6229C13.4329 40.6286 13.5195 40.6357 13.582 40.6442V41.8629C13.5309 41.8487 13.44 41.8331 13.3093 41.8161C13.1786 41.7962 13.0479 41.7862 12.9173 41.7862C12.6161 41.7862 12.3477 41.8501 12.1119 41.978C11.8789 42.103 11.6942 42.2777 11.5579 42.5021C11.4215 42.7237 11.3533 42.9766 11.3533 43.2607V47.2578H10.0792ZM16.9006 47.3857C16.3722 47.3857 15.9006 47.2507 15.4858 46.9808C15.0739 46.7081 14.75 46.3203 14.5142 45.8175C14.2813 45.3118 14.1648 44.7053 14.1648 43.9979C14.1648 43.2905 14.2827 42.6854 14.5185 42.1825C14.7571 41.6797 15.0838 41.2947 15.4986 41.0277C15.9134 40.7607 16.3835 40.6271 16.9091 40.6271C17.3153 40.6271 17.642 40.6953 17.8892 40.8317C18.1392 40.9652 18.3324 41.1214 18.4688 41.3004C18.608 41.4794 18.7159 41.6371 18.7926 41.7734H18.8693V38.5305H20.1435V47.2578H18.8991V46.2393H18.7926C18.7159 46.3786 18.6051 46.5376 18.4602 46.7166C18.3182 46.8956 18.1222 47.0518 17.8722 47.1854C17.6222 47.3189 17.2983 47.3857 16.9006 47.3857ZM17.1818 46.299C17.5483 46.299 17.858 46.2024 18.1108 46.0092C18.3665 45.8132 18.5597 45.5419 18.6903 45.1953C18.8239 44.8487 18.8906 44.4453 18.8906 43.9851C18.8906 43.5305 18.8253 43.1328 18.6946 42.7919C18.5639 42.451 18.3722 42.1854 18.1193 41.995C17.8665 41.8047 17.554 41.7095 17.1818 41.7095C16.7983 41.7095 16.4787 41.8089 16.223 42.0078C15.9673 42.2067 15.7741 42.478 15.6435 42.8217C15.5156 43.1655 15.4517 43.5533 15.4517 43.9851C15.4517 44.4226 15.517 44.8161 15.6477 45.1655C15.7784 45.5149 15.9716 45.7919 16.2273 45.9964C16.4858 46.1982 16.804 46.299 17.1818 46.299ZM24.783 47.3899C24.1381 47.3899 23.5827 47.2521 23.1168 46.9766C22.6538 46.6982 22.2958 46.3075 22.043 45.8047C21.793 45.299 21.668 44.7067 21.668 44.0277C21.668 43.3572 21.793 42.7663 22.043 42.255C22.2958 41.7436 22.6481 41.3445 23.0998 41.0575C23.5543 40.7706 24.0856 40.6271 24.6935 40.6271C25.0629 40.6271 25.4208 40.6882 25.7674 40.8104C26.114 40.9325 26.4251 41.1243 26.7006 41.3857C26.9762 41.647 27.1935 41.9865 27.3526 42.4041C27.5117 42.8189 27.5913 43.3232 27.5913 43.9169V44.3686H22.3881V43.4141H26.3427C26.3427 43.0788 26.2745 42.782 26.1381 42.5234C26.0018 42.2621 25.81 42.0561 25.5629 41.9055C25.3185 41.755 25.0316 41.6797 24.7021 41.6797C24.3441 41.6797 24.0316 41.7678 23.7646 41.9439C23.5004 42.1172 23.2958 42.3445 23.1509 42.6257C23.0089 42.9041 22.9379 43.2067 22.9379 43.5334V44.2791C22.9379 44.7166 23.0146 45.0888 23.168 45.3956C23.3242 45.7024 23.5415 45.9368 23.82 46.0987C24.0984 46.2578 24.4237 46.3374 24.7958 46.3374C25.0373 46.3374 25.2575 46.3033 25.4563 46.2351C25.6552 46.1641 25.8271 46.0589 25.9719 45.9197C26.1168 45.7805 26.2276 45.6087 26.3043 45.4041L27.5103 45.6214C27.4137 45.9766 27.2404 46.2876 26.9904 46.5547C26.7433 46.8189 26.4322 47.0249 26.0572 47.1726C25.685 47.3175 25.2603 47.3899 24.783 47.3899ZM29.005 47.2578V40.7124H30.2365V41.7521H30.3047C30.424 41.3999 30.6342 41.1229 30.9354 40.9212C31.2393 40.7166 31.5831 40.6143 31.9666 40.6143C32.0462 40.6143 32.1399 40.6172 32.2479 40.6229C32.3587 40.6286 32.4453 40.6357 32.5078 40.6442V41.8629C32.4567 41.8487 32.3658 41.8331 32.2351 41.8161C32.1044 41.7962 31.9737 41.7862 31.843 41.7862C31.5419 41.7862 31.2734 41.8501 31.0376 41.978C30.8047 42.103 30.62 42.2777 30.4837 42.5021C30.3473 42.7237 30.2791 42.9766 30.2791 43.2607V47.2578H29.005Z" fill="#0C7A41"/>
</svg>
