<svg width="48" height="48" viewBox="0 0 48 48" fill="none" xmlns="http://www.w3.org/2000/svg">
<path d="M9 26.5V19.021C9 19.0094 9.0094 19 9.021 19H35.979C35.9906 19 36 19.0094 36 19.021V26.5C36 33.9558 29.9558 40 22.5 40C15.0442 40 9 33.9558 9 26.5Z" stroke="#00B375" stroke-width="2" stroke-linecap="round" stroke-linejoin="round"/>
<path d="M36 21H37C39.2091 21 41 22.7909 41 25V25C41 27.2091 39.2091 29 37 29H36" stroke="#00B375" stroke-width="2" stroke-linecap="round"/>
<path d="M18.1855 7.73047L20.1484 12.5254H20.2266L22.1895 7.73047H24.0059V14.8008H22.5801V10.1719H22.5215L20.6758 14.7715H19.6992L17.8535 10.1523H17.7949V14.8008H16.3691V7.73047H18.1855ZM26.0176 16.793C25.7148 16.793 25.4707 16.7832 25.2852 16.7637V15.6406C25.5326 15.6536 25.7279 15.6602 25.8711 15.6602C25.985 15.6602 26.0794 15.6504 26.1543 15.6309C26.2324 15.6113 26.3057 15.5658 26.374 15.4941C26.4456 15.4225 26.5091 15.3151 26.5645 15.1719L26.6523 14.9473L24.748 9.49805H26.2617L27.375 13.4043H27.4336L28.5566 9.49805H30.0898L28.0195 15.3867C27.86 15.8392 27.6208 16.1859 27.3018 16.4268C26.9827 16.6709 26.5547 16.793 26.0176 16.793Z" fill="#00B375"/>
</svg>
