<svg width="34" height="50" viewBox="0 0 34 50" fill="none" xmlns="http://www.w3.org/2000/svg">
<path d="M16.6685 5.92169L8.667 13.6595V22.0108C8.667 22.227 8.74015 22.4344 8.87038 22.5873C9.0006 22.7402 9.17722 22.8261 9.36139 22.8261L14.2247 22.8113C14.4083 22.8102 14.584 22.7239 14.7135 22.5711C14.843 22.4183 14.9156 22.2115 14.9156 21.996V17.1189C14.9156 16.9027 14.9888 16.6953 15.119 16.5424C15.2493 16.3895 15.4259 16.3036 15.61 16.3036H18.3876C18.5718 16.3036 18.7484 16.3895 18.8786 16.5424C19.0088 16.6953 19.082 16.9027 19.082 17.1189V21.9924C19.0817 22.0997 19.0995 22.206 19.1342 22.3052C19.169 22.4044 19.2201 22.4946 19.2846 22.5706C19.3491 22.6466 19.4258 22.7069 19.5101 22.748C19.5945 22.7891 19.685 22.8103 19.7764 22.8103L24.638 22.8261C24.8222 22.8261 24.9988 22.7402 25.129 22.5873C25.2592 22.4344 25.3324 22.227 25.3324 22.0108V13.6539L17.3326 5.92169C17.2385 5.83268 17.1214 5.78414 17.0006 5.78414C16.8798 5.78414 16.7626 5.83268 16.6685 5.92169ZM29.3078 11.1809L25.6796 7.6695V0.611481C25.6796 0.449306 25.6247 0.293774 25.527 0.179099C25.4294 0.0644238 25.2969 0 25.1588 0H22.7284C22.5903 0 22.4578 0.0644238 22.3602 0.179099C22.2625 0.293774 22.2076 0.449306 22.2076 0.611481V4.31145L18.3221 0.557977C17.9492 0.197702 17.4813 0.000720195 16.9984 0.000720195C16.5155 0.000720195 16.0476 0.197702 15.6747 0.557977L4.689 11.1809C4.63627 11.2321 4.59264 11.295 4.56061 11.366C4.52857 11.437 4.50877 11.5147 4.50232 11.5946C4.49587 11.6746 4.50291 11.7553 4.52302 11.8321C4.54314 11.9088 4.57595 11.9802 4.61956 12.0421L5.72625 13.6218C5.76975 13.6839 5.82326 13.7353 5.8837 13.7731C5.94415 13.8109 6.01035 13.8343 6.07852 13.842C6.14669 13.8497 6.21548 13.8416 6.28096 13.818C6.34645 13.7945 6.40733 13.756 6.46014 13.7048L16.6685 3.83246C16.7626 3.74345 16.8798 3.69491 17.0006 3.69491C17.1214 3.69491 17.2385 3.74345 17.3326 3.83246L27.5414 13.7048C27.5941 13.756 27.6549 13.7946 27.7203 13.8182C27.7857 13.8418 27.8544 13.8501 27.9225 13.8425C27.9906 13.8349 28.0568 13.8117 28.1173 13.774C28.1777 13.7364 28.2313 13.6852 28.2749 13.6233L29.3815 12.0436C29.4251 11.9814 29.4578 11.9096 29.4777 11.8325C29.4975 11.7554 29.5043 11.6744 29.4974 11.5943C29.4905 11.5141 29.4703 11.4363 29.4377 11.3654C29.4052 11.2945 29.361 11.2318 29.3078 11.1809Z" fill="#0C7A41"/>
<path d="M0.958807 45.6953V36.968H2.27557V40.7607H6.62642V36.968H7.94744V45.6953H6.62642V41.8899H2.27557V45.6953H0.958807ZM12.5199 45.8274C11.9063 45.8274 11.3707 45.6868 10.9134 45.4055C10.456 45.1243 10.1009 44.7308 9.84801 44.2251C9.59517 43.7195 9.46875 43.1286 9.46875 42.4524C9.46875 41.7734 9.59517 41.1797 9.84801 40.6712C10.1009 40.1626 10.456 39.7678 10.9134 39.4865C11.3707 39.2053 11.9063 39.0646 12.5199 39.0646C13.1335 39.0646 13.669 39.2053 14.1264 39.4865C14.5838 39.7678 14.9389 40.1626 15.1918 40.6712C15.4446 41.1797 15.571 41.7734 15.571 42.4524C15.571 43.1286 15.4446 43.7195 15.1918 44.2251C14.9389 44.7308 14.5838 45.1243 14.1264 45.4055C13.669 45.6868 13.1335 45.8274 12.5199 45.8274ZM12.5241 44.7578C12.9219 44.7578 13.2514 44.6527 13.5128 44.4425C13.7741 44.2322 13.9673 43.9524 14.0923 43.603C14.2202 43.2536 14.2841 42.8686 14.2841 42.4482C14.2841 42.0305 14.2202 41.647 14.0923 41.2976C13.9673 40.9453 13.7741 40.6626 13.5128 40.4496C13.2514 40.2365 12.9219 40.13 12.5241 40.13C12.1236 40.13 11.7912 40.2365 11.527 40.4496C11.2656 40.6626 11.071 40.9453 10.9432 41.2976C10.8182 41.647 10.7557 42.0305 10.7557 42.4482C10.7557 42.8686 10.8182 43.2536 10.9432 43.603C11.071 43.9524 11.2656 44.2322 11.527 44.4425C11.7912 44.6527 12.1236 44.7578 12.5241 44.7578ZM16.9933 45.6953V39.1499H18.2163V40.2152H18.2972C18.4336 39.8544 18.6566 39.5732 18.9663 39.3714C19.2759 39.1669 19.6467 39.0646 20.0785 39.0646C20.516 39.0646 20.8825 39.1669 21.1779 39.3714C21.4762 39.576 21.6964 39.8572 21.8384 40.2152H21.9066C22.0629 39.8658 22.3114 39.5874 22.6523 39.38C22.9933 39.1697 23.3995 39.0646 23.8711 39.0646C24.4648 39.0646 24.9492 39.2507 25.3242 39.6229C25.7021 39.995 25.891 40.5561 25.891 41.3061V45.6953H24.6168V41.4254C24.6168 40.9822 24.4961 40.6612 24.2546 40.4624C24.0131 40.2635 23.7248 40.1641 23.3896 40.1641C22.9748 40.1641 22.6523 40.2919 22.4222 40.5476C22.1921 40.8004 22.0771 41.1257 22.0771 41.5234V45.6953H20.8072V41.3445C20.8072 40.9893 20.6964 40.7038 20.4748 40.4879C20.2532 40.272 19.9648 40.1641 19.6097 40.1641C19.3683 40.1641 19.1452 40.228 18.9407 40.3558C18.739 40.4808 18.5756 40.6555 18.4506 40.88C18.3285 41.1044 18.2674 41.3643 18.2674 41.6598V45.6953H16.9933ZM30.4197 45.8274C29.7749 45.8274 29.2195 45.6896 28.7536 45.4141C28.2905 45.1357 27.9325 44.745 27.6797 44.2422C27.4297 43.7365 27.3047 43.1442 27.3047 42.4652C27.3047 41.7947 27.4297 41.2038 27.6797 40.6925C27.9325 40.1811 28.2848 39.782 28.7365 39.495C29.1911 39.2081 29.7223 39.0646 30.3303 39.0646C30.6996 39.0646 31.0575 39.1257 31.4041 39.2479C31.7507 39.37 32.0618 39.5618 32.3374 39.8232C32.6129 40.0845 32.8303 40.424 32.9893 40.8416C33.1484 41.2564 33.228 41.7607 33.228 42.3544V42.8061H28.0249V41.8516H31.9794C31.9794 41.5163 31.9112 41.2195 31.7749 40.9609C31.6385 40.6996 31.4467 40.4936 31.1996 40.343C30.9553 40.1925 30.6683 40.1172 30.3388 40.1172C29.9808 40.1172 29.6683 40.2053 29.4013 40.3814C29.1371 40.5547 28.9325 40.782 28.7876 41.0632C28.6456 41.3416 28.5746 41.6442 28.5746 41.9709V42.7166C28.5746 43.1541 28.6513 43.5263 28.8047 43.8331C28.9609 44.1399 29.1783 44.3743 29.4567 44.5362C29.7351 44.6953 30.0604 44.7749 30.4325 44.7749C30.674 44.7749 30.8942 44.7408 31.093 44.6726C31.2919 44.6016 31.4638 44.4964 31.6087 44.3572C31.7536 44.218 31.8643 44.0462 31.9411 43.8416L33.147 44.0589C33.0504 44.4141 32.8771 44.7251 32.6271 44.9922C32.38 45.2564 32.0689 45.4624 31.6939 45.6101C31.3217 45.755 30.897 45.8274 30.4197 45.8274Z" fill="#0C7A41"/>
</svg>
