<svg width="30" height="51" viewBox="0 0 30 51" fill="none" xmlns="http://www.w3.org/2000/svg">
<path fill-rule="evenodd" clip-rule="evenodd" d="M10.3694 4.10523H18.7225C18.5089 3.46574 18.1465 2.87785 17.6566 2.39263C16.8316 1.57548 15.7127 1.11641 14.5459 1.11641C13.3792 1.11641 12.2603 1.57548 11.4353 2.39263C10.9454 2.87785 10.583 3.46574 10.3694 4.10523ZM19.9062 4.14191C21.0392 4.31753 21.943 5.10626 22.1082 6.12442L24.8995 23.3274C25.1286 24.739 23.864 26 22.2191 26H7.77927C6.18457 26 4.93547 24.8112 5.08432 23.4351L6.94522 6.23213C7.06121 5.15984 7.99783 4.31229 9.18665 4.13811C9.42836 3.1867 9.92608 2.3086 10.6383 1.60321C11.6746 0.576691 13.0803 1.11048e-07 14.5459 0C16.0116 -1.11049e-07 17.4173 0.576689 18.4536 1.6032C19.1668 2.30954 19.6649 3.18903 19.9062 4.14191ZM9.93845 8.5526C9.93845 9.73211 10.4375 10.8633 11.3258 11.6974C12.2142 12.5314 13.419 13 14.6753 13C15.9316 13 17.1364 12.5314 18.0247 11.6974C18.9131 10.8633 19.4121 9.73212 19.4121 8.5526H18.446C18.446 9.49154 18.0487 10.392 17.3416 11.056C16.6344 11.7199 15.6753 12.0929 14.6753 12.0929C13.6752 12.0929 12.7161 11.7199 12.009 11.056C11.3018 10.392 10.9046 9.49154 10.9046 8.5526H9.93845Z" fill="#979797"/>
<path d="M5.71875 41.5653C5.6733 41.1619 5.4858 40.8494 5.15625 40.6278C4.8267 40.4034 4.41193 40.2912 3.91193 40.2912C3.55398 40.2912 3.24432 40.348 2.98295 40.4616C2.72159 40.5724 2.51847 40.7259 2.37358 40.9219C2.23153 41.1151 2.16051 41.3352 2.16051 41.5824C2.16051 41.7898 2.20881 41.9687 2.3054 42.1193C2.40483 42.2699 2.53409 42.3963 2.69318 42.4986C2.85511 42.598 3.02841 42.6818 3.21307 42.75C3.39773 42.8153 3.57528 42.8693 3.74574 42.9119L4.59801 43.1335C4.87642 43.2017 5.16193 43.294 5.45455 43.4105C5.74716 43.527 6.01847 43.6804 6.26847 43.8707C6.51847 44.0611 6.72017 44.2969 6.87358 44.5781C7.02983 44.8594 7.10795 45.196 7.10795 45.5881C7.10795 46.0824 6.98011 46.5213 6.72443 46.9048C6.47159 47.2884 6.10369 47.5909 5.62074 47.8125C5.14063 48.0341 4.55966 48.1449 3.87784 48.1449C3.22443 48.1449 2.65909 48.0412 2.18182 47.8338C1.70455 47.6264 1.33097 47.3324 1.06108 46.9517C0.791193 46.5682 0.642045 46.1136 0.613636 45.5881H1.93466C1.96023 45.9034 2.0625 46.1662 2.24148 46.3764C2.4233 46.5838 2.65483 46.7386 2.93608 46.8409C3.22017 46.9403 3.53125 46.9901 3.86932 46.9901C4.24148 46.9901 4.57244 46.9318 4.86222 46.8153C5.15483 46.696 5.38494 46.5312 5.55256 46.321C5.72017 46.108 5.80398 45.8594 5.80398 45.5753C5.80398 45.3168 5.73011 45.1051 5.58239 44.9403C5.4375 44.7756 5.24006 44.6392 4.99006 44.5312C4.7429 44.4233 4.46307 44.3281 4.15057 44.2457L3.11932 43.9645C2.42045 43.7741 1.86648 43.4943 1.45739 43.125C1.05114 42.7557 0.848011 42.267 0.848011 41.6591C0.848011 41.1562 0.984375 40.7173 1.2571 40.3423C1.52983 39.9673 1.89915 39.6761 2.36506 39.4688C2.83097 39.2585 3.35653 39.1534 3.94176 39.1534C4.53267 39.1534 5.05398 39.2571 5.50568 39.4645C5.96023 39.6719 6.31818 39.9574 6.57955 40.321C6.84091 40.6818 6.97727 41.0966 6.98864 41.5653H5.71875ZM9.85334 44.1136V48H8.57919V39.2727H9.83629V42.5199H9.91726C10.0707 42.1676 10.305 41.8878 10.6204 41.6804C10.9357 41.473 11.3477 41.3693 11.8562 41.3693C12.305 41.3693 12.6971 41.4616 13.0323 41.6463C13.3704 41.831 13.6317 42.1065 13.8164 42.473C14.0039 42.8366 14.0977 43.2912 14.0977 43.8366V48H12.8235V43.9901C12.8235 43.5099 12.6999 43.1378 12.4528 42.8736C12.2056 42.6065 11.8619 42.473 11.4215 42.473C11.1204 42.473 10.8505 42.5369 10.6119 42.6648C10.3761 42.7926 10.19 42.9801 10.0536 43.2273C9.9201 43.4716 9.85334 43.767 9.85334 44.1136ZM18.555 48.1321C17.9414 48.1321 17.4059 47.9915 16.9485 47.7102C16.4911 47.429 16.136 47.0355 15.8832 46.5298C15.6303 46.0241 15.5039 45.4332 15.5039 44.7571C15.5039 44.0781 15.6303 43.4844 15.8832 42.9759C16.136 42.4673 16.4911 42.0724 16.9485 41.7912C17.4059 41.5099 17.9414 41.3693 18.555 41.3693C19.1687 41.3693 19.7042 41.5099 20.1616 41.7912C20.619 42.0724 20.9741 42.4673 21.2269 42.9759C21.4798 43.4844 21.6062 44.0781 21.6062 44.7571C21.6062 45.4332 21.4798 46.0241 21.2269 46.5298C20.9741 47.0355 20.619 47.429 20.1616 47.7102C19.7042 47.9915 19.1687 48.1321 18.555 48.1321ZM18.5593 47.0625C18.957 47.0625 19.2866 46.9574 19.5479 46.7472C19.8093 46.5369 20.0025 46.2571 20.1275 45.9077C20.2553 45.5582 20.3192 45.1733 20.3192 44.7528C20.3192 44.3352 20.2553 43.9517 20.1275 43.6023C20.0025 43.25 19.8093 42.9673 19.5479 42.7543C19.2866 42.5412 18.957 42.4347 18.5593 42.4347C18.1587 42.4347 17.8263 42.5412 17.5621 42.7543C17.3008 42.9673 17.1062 43.25 16.9783 43.6023C16.8533 43.9517 16.7908 44.3352 16.7908 44.7528C16.7908 45.1733 16.8533 45.5582 16.9783 45.9077C17.1062 46.2571 17.3008 46.5369 17.5621 46.7472C17.8263 46.9574 18.1587 47.0625 18.5593 47.0625ZM23.0284 50.4545V41.4545H24.2727V42.5156H24.3793C24.4531 42.3793 24.5597 42.2216 24.6989 42.0426C24.8381 41.8636 25.0313 41.7074 25.2784 41.5739C25.5256 41.4375 25.8523 41.3693 26.2585 41.3693C26.7869 41.3693 27.2585 41.5028 27.6733 41.7699C28.0881 42.0369 28.4134 42.4219 28.6491 42.9247C28.8878 43.4276 29.0071 44.0327 29.0071 44.7401C29.0071 45.4474 28.8892 46.054 28.6534 46.5597C28.4176 47.0625 28.0938 47.4503 27.6818 47.723C27.2699 47.9929 26.7997 48.1278 26.2713 48.1278C25.8736 48.1278 25.5483 48.0611 25.2955 47.9276C25.0455 47.794 24.8494 47.6378 24.7074 47.4588C24.5653 47.2798 24.456 47.1207 24.3793 46.9815H24.3026V50.4545H23.0284ZM24.277 44.7273C24.277 45.1875 24.3438 45.5909 24.4773 45.9375C24.6108 46.2841 24.804 46.5554 25.0568 46.7514C25.3097 46.9446 25.6193 47.0412 25.9858 47.0412C26.3665 47.0412 26.6847 46.9403 26.9403 46.7386C27.196 46.5341 27.3892 46.2571 27.5199 45.9077C27.6534 45.5582 27.7202 45.1648 27.7202 44.7273C27.7202 44.2955 27.6548 43.9077 27.5241 43.5639C27.3963 43.2202 27.2031 42.9489 26.9446 42.75C26.6889 42.5511 26.3693 42.4517 25.9858 42.4517C25.6165 42.4517 25.304 42.5469 25.0483 42.7372C24.7955 42.9276 24.6037 43.1932 24.473 43.5341C24.3423 43.875 24.277 44.2727 24.277 44.7273Z" fill="#545454"/>
</svg>
