<svg width="34" height="50" viewBox="0 0 34 50" fill="none" xmlns="http://www.w3.org/2000/svg">
<path d="M16.4873 0C18.1482 0.00010501 19.7415 0.565972 20.916 1.57227C21.7241 2.26484 22.2881 3.12726 22.5615 4.06152C23.8455 4.23364 24.8702 5.00585 25.0576 6.00391L28.2207 22.8701C28.4802 24.2539 27.0475 25.49 25.1836 25.4902H8.81834C7.01101 25.4902 5.59496 24.3246 5.76365 22.9756L7.87303 6.11035C8.00442 5.0596 9.06475 4.22993 10.4111 4.05859C10.6848 3.12507 11.2509 2.26432 12.0586 1.57227C13.2331 0.565896 14.8262 2.16321e-07 16.4873 0ZM11.2646 8.38477C11.2646 9.541 11.8304 10.6501 12.8369 11.4678C13.8437 12.2855 15.21 12.7451 16.6338 12.7451C18.0574 12.745 19.423 12.2854 20.4297 11.4678C21.4363 10.6501 22.0019 9.54106 22.0019 8.38477H20.9072C20.9072 9.30523 20.4566 10.188 19.6553 10.8389C18.8539 11.4897 17.767 11.8554 16.6338 11.8555C15.5004 11.8555 14.4127 11.4898 13.6113 10.8389C12.8101 10.188 12.3603 9.30517 12.3603 8.38477H11.2646ZM16.4873 1.09473C15.165 1.09473 13.8959 1.54458 12.9609 2.3457C12.4061 2.82117 11.9969 3.39786 11.7549 4.02441H21.2187C20.9766 3.39786 20.5675 2.82117 20.0127 2.3457C19.0778 1.54467 17.8094 1.09483 16.4873 1.09473Z" fill="#0C7A41"/>
<path d="M5.71875 40.8583C5.6733 40.4549 5.4858 40.1424 5.15625 39.9208C4.8267 39.6964 4.41193 39.5842 3.91193 39.5842C3.55398 39.5842 3.24432 39.641 2.98295 39.7546C2.72159 39.8654 2.51847 40.0188 2.37358 40.2148C2.23153 40.408 2.16051 40.6282 2.16051 40.8754C2.16051 41.0827 2.20881 41.2617 2.3054 41.4123C2.40483 41.5629 2.53409 41.6893 2.69318 41.7915C2.85511 41.891 3.02841 41.9748 3.21307 42.043C3.39773 42.1083 3.57528 42.1623 3.74574 42.2049L4.59801 42.4265C4.87642 42.4947 5.16193 42.587 5.45455 42.7035C5.74716 42.82 6.01847 42.9734 6.26847 43.1637C6.51847 43.354 6.72017 43.5898 6.87358 43.8711C7.02983 44.1523 7.10795 44.489 7.10795 44.881C7.10795 45.3754 6.98011 45.8143 6.72443 46.1978C6.47159 46.5813 6.10369 46.8839 5.62074 47.1055C5.14063 47.3271 4.55966 47.4379 3.87784 47.4379C3.22443 47.4379 2.65909 47.3342 2.18182 47.1268C1.70455 46.9194 1.33097 46.6254 1.06108 46.2447C0.791193 45.8612 0.642045 45.4066 0.613636 44.881H1.93466C1.96023 45.1964 2.0625 45.4592 2.24148 45.6694C2.4233 45.8768 2.65483 46.0316 2.93608 46.1339C3.22017 46.2333 3.53125 46.283 3.86932 46.283C4.24148 46.283 4.57244 46.2248 4.86222 46.1083C5.15483 45.989 5.38494 45.8242 5.55256 45.614C5.72017 45.4009 5.80398 45.1523 5.80398 44.8683C5.80398 44.6097 5.73011 44.3981 5.58239 44.2333C5.4375 44.0685 5.24006 43.9322 4.99006 43.8242C4.7429 43.7163 4.46307 43.6211 4.15057 43.5387L3.11932 43.2575C2.42045 43.0671 1.86648 42.7873 1.45739 42.418C1.05114 42.0487 0.848011 41.56 0.848011 40.9521C0.848011 40.4492 0.984375 40.0103 1.2571 39.6353C1.52983 39.2603 1.89915 38.9691 2.36506 38.7617C2.83097 38.5515 3.35653 38.4464 3.94176 38.4464C4.53267 38.4464 5.05398 38.5501 5.50568 38.7575C5.96023 38.9648 6.31818 39.2504 6.57955 39.614C6.84091 39.9748 6.97727 40.3896 6.98864 40.8583H5.71875ZM9.85334 43.4066V47.293H8.57919V38.5657H9.83629V41.8129H9.91726C10.0707 41.4606 10.305 41.1808 10.6204 40.9734C10.9357 40.766 11.3477 40.6623 11.8562 40.6623C12.305 40.6623 12.6971 40.7546 13.0323 40.9393C13.3704 41.1239 13.6317 41.3995 13.8164 41.766C14.0039 42.1296 14.0977 42.5842 14.0977 43.1296V47.293H12.8235V43.283C12.8235 42.8029 12.6999 42.4308 12.4528 42.1665C12.2056 41.8995 11.8619 41.766 11.4215 41.766C11.1204 41.766 10.8505 41.8299 10.6119 41.9577C10.3761 42.0856 10.19 42.2731 10.0536 42.5202C9.9201 42.7646 9.85334 43.06 9.85334 43.4066ZM18.555 47.4251C17.9414 47.4251 17.4059 47.2844 16.9485 47.0032C16.4911 46.7219 16.136 46.3285 15.8832 45.8228C15.6303 45.3171 15.5039 44.7262 15.5039 44.0501C15.5039 43.3711 15.6303 42.7773 15.8832 42.2688C16.136 41.7603 16.4911 41.3654 16.9485 41.0842C17.4059 40.8029 17.9414 40.6623 18.555 40.6623C19.1687 40.6623 19.7042 40.8029 20.1616 41.0842C20.619 41.3654 20.9741 41.7603 21.2269 42.2688C21.4798 42.7773 21.6062 43.3711 21.6062 44.0501C21.6062 44.7262 21.4798 45.3171 21.2269 45.8228C20.9741 46.3285 20.619 46.7219 20.1616 47.0032C19.7042 47.2844 19.1687 47.4251 18.555 47.4251ZM18.5593 46.3555C18.957 46.3555 19.2866 46.2504 19.5479 46.0401C19.8093 45.8299 20.0025 45.5501 20.1275 45.2006C20.2553 44.8512 20.3192 44.4663 20.3192 44.0458C20.3192 43.6282 20.2553 43.2447 20.1275 42.8952C20.0025 42.543 19.8093 42.2603 19.5479 42.0472C19.2866 41.8342 18.957 41.7276 18.5593 41.7276C18.1587 41.7276 17.8263 41.8342 17.5621 42.0472C17.3008 42.2603 17.1062 42.543 16.9783 42.8952C16.8533 43.2447 16.7908 43.6282 16.7908 44.0458C16.7908 44.4663 16.8533 44.8512 16.9783 45.2006C17.1062 45.5501 17.3008 45.8299 17.5621 46.0401C17.8263 46.2504 18.1587 46.3555 18.5593 46.3555ZM23.0284 49.7475V40.7475H24.2727V41.8086H24.3793C24.4531 41.6722 24.5597 41.5146 24.6989 41.3356C24.8381 41.1566 25.0313 41.0004 25.2784 40.8668C25.5256 40.7305 25.8523 40.6623 26.2585 40.6623C26.7869 40.6623 27.2585 40.7958 27.6733 41.0629C28.0881 41.3299 28.4134 41.7148 28.6491 42.2177C28.8878 42.7205 29.0071 43.3256 29.0071 44.033C29.0071 44.7404 28.8892 45.3469 28.6534 45.8526C28.4176 46.3555 28.0938 46.7433 27.6818 47.016C27.2699 47.2859 26.7997 47.4208 26.2713 47.4208C25.8736 47.4208 25.5483 47.354 25.2955 47.2205C25.0455 47.087 24.8494 46.9308 24.7074 46.7518C24.5653 46.5728 24.456 46.4137 24.3793 46.2745H24.3026V49.7475H23.0284ZM24.277 44.0202C24.277 44.4805 24.3438 44.8839 24.4773 45.2305C24.6108 45.5771 24.804 45.8484 25.0568 46.0444C25.3097 46.2376 25.6193 46.3342 25.9858 46.3342C26.3665 46.3342 26.6847 46.2333 26.9403 46.0316C27.196 45.8271 27.3892 45.5501 27.5199 45.2006C27.6534 44.8512 27.7202 44.4577 27.7202 44.0202C27.7202 43.5884 27.6548 43.2006 27.5241 42.8569C27.3963 42.5131 27.2031 42.2418 26.9446 42.043C26.6889 41.8441 26.3693 41.7447 25.9858 41.7447C25.6165 41.7447 25.304 41.8398 25.0483 42.0302C24.7955 42.2205 24.6037 42.4862 24.473 42.8271C24.3423 43.168 24.277 43.5657 24.277 44.0202Z" fill="#0C7A41"/>
</svg>
