<svg width="33" height="39" viewBox="0 0 33 39" fill="none" xmlns="http://www.w3.org/2000/svg">
<circle cx="9.5" cy="2.25" r="2" fill="#979797"/>
<circle cx="16.5" cy="2.25" r="2" fill="#979797"/>
<circle cx="23.5" cy="2.25" r="2" fill="#979797"/>
<path d="M8.53977 31.3864C8.53977 32.3182 8.36932 33.1193 8.02841 33.7898C7.6875 34.4574 7.22017 34.9716 6.62642 35.3324C6.03551 35.6903 5.36364 35.8693 4.6108 35.8693C3.85511 35.8693 3.1804 35.6903 2.58665 35.3324C1.99574 34.9716 1.52983 34.456 1.18892 33.7855C0.848011 33.1151 0.677557 32.3153 0.677557 31.3864C0.677557 30.4545 0.848011 29.6548 1.18892 28.9872C1.52983 28.3168 1.99574 27.8026 2.58665 27.4446C3.1804 27.0838 3.85511 26.9034 4.6108 26.9034C5.36364 26.9034 6.03551 27.0838 6.62642 27.4446C7.22017 27.8026 7.6875 28.3168 8.02841 28.9872C8.36932 29.6548 8.53977 30.4545 8.53977 31.3864ZM7.2358 31.3864C7.2358 30.6761 7.12074 30.0781 6.89062 29.5923C6.66335 29.1037 6.35085 28.7344 5.95312 28.4844C5.55824 28.2315 5.1108 28.1051 4.6108 28.1051C4.10795 28.1051 3.65909 28.2315 3.2642 28.4844C2.86932 28.7344 2.55682 29.1037 2.3267 29.5923C2.09943 30.0781 1.9858 30.6761 1.9858 31.3864C1.9858 32.0966 2.09943 32.696 2.3267 33.1847C2.55682 33.6705 2.86932 34.0398 3.2642 34.2926C3.65909 34.5426 4.10795 34.6676 4.6108 34.6676C5.1108 34.6676 5.55824 34.5426 5.95312 34.2926C6.35085 34.0398 6.66335 33.6705 6.89062 33.1847C7.12074 32.696 7.2358 32.0966 7.2358 31.3864ZM13.1346 29.2045V30.2273H9.5593V29.2045H13.1346ZM10.5181 27.6364H11.7923V33.8281C11.7923 34.0753 11.8292 34.2614 11.9031 34.3864C11.9769 34.5085 12.0721 34.5923 12.1886 34.6378C12.3079 34.6804 12.4371 34.7017 12.5763 34.7017C12.6786 34.7017 12.7681 34.6946 12.8448 34.6804C12.9215 34.6662 12.9812 34.6548 13.0238 34.6463L13.2539 35.6989C13.18 35.7273 13.0749 35.7557 12.9386 35.7841C12.8022 35.8153 12.6317 35.8324 12.4272 35.8352C12.092 35.8409 11.7795 35.7812 11.4897 35.6562C11.1999 35.5312 10.9656 35.3381 10.7866 35.0767C10.6076 34.8153 10.5181 34.4872 10.5181 34.0923V27.6364ZM15.9588 31.8636V35.75H14.6847V27.0227H15.9418V30.2699H16.0227C16.1761 29.9176 16.4105 29.6378 16.7259 29.4304C17.0412 29.223 17.4531 29.1193 17.9616 29.1193C18.4105 29.1193 18.8026 29.2116 19.1378 29.3963C19.4759 29.581 19.7372 29.8565 19.9219 30.223C20.1094 30.5866 20.2031 31.0412 20.2031 31.5866V35.75H18.929V31.7401C18.929 31.2599 18.8054 30.8878 18.5582 30.6236C18.3111 30.3565 17.9673 30.223 17.527 30.223C17.2259 30.223 16.956 30.2869 16.7173 30.4148C16.4815 30.5426 16.2955 30.7301 16.1591 30.9773C16.0256 31.2216 15.9588 31.517 15.9588 31.8636ZM24.7244 35.8821C24.0795 35.8821 23.5241 35.7443 23.0582 35.4688C22.5952 35.1903 22.2372 34.7997 21.9844 34.2969C21.7344 33.7912 21.6094 33.1989 21.6094 32.5199C21.6094 31.8494 21.7344 31.2585 21.9844 30.7472C22.2372 30.2358 22.5895 29.8366 23.0412 29.5497C23.4957 29.2628 24.027 29.1193 24.6349 29.1193C25.0043 29.1193 25.3622 29.1804 25.7088 29.3026C26.0554 29.4247 26.3665 29.6165 26.642 29.8778C26.9176 30.1392 27.1349 30.4787 27.294 30.8963C27.4531 31.3111 27.5327 31.8153 27.5327 32.4091V32.8608H22.3295V31.9062H26.2841C26.2841 31.571 26.2159 31.2741 26.0795 31.0156C25.9432 30.7543 25.7514 30.5483 25.5043 30.3977C25.2599 30.2472 24.973 30.1719 24.6435 30.1719C24.2855 30.1719 23.973 30.2599 23.706 30.4361C23.4418 30.6094 23.2372 30.8366 23.0923 31.1179C22.9503 31.3963 22.8793 31.6989 22.8793 32.0256V32.7713C22.8793 33.2088 22.956 33.581 23.1094 33.8878C23.2656 34.1946 23.483 34.429 23.7614 34.5909C24.0398 34.75 24.3651 34.8295 24.7372 34.8295C24.9787 34.8295 25.1989 34.7955 25.3977 34.7273C25.5966 34.6562 25.7685 34.5511 25.9134 34.4119C26.0582 34.2727 26.169 34.1009 26.2457 33.8963L27.4517 34.1136C27.3551 34.4687 27.1818 34.7798 26.9318 35.0469C26.6847 35.3111 26.3736 35.517 25.9986 35.6648C25.6264 35.8097 25.2017 35.8821 24.7244 35.8821ZM28.9464 35.75V29.2045H30.1779V30.2443H30.2461C30.3654 29.892 30.5756 29.6151 30.8768 29.4134C31.1808 29.2088 31.5245 29.1065 31.908 29.1065C31.9876 29.1065 32.0813 29.1094 32.1893 29.1151C32.3001 29.1207 32.3867 29.1278 32.4492 29.1364V30.3551C32.3981 30.3409 32.3072 30.3253 32.1765 30.3082C32.0458 30.2884 31.9151 30.2784 31.7844 30.2784C31.4833 30.2784 31.2148 30.3423 30.979 30.4702C30.7461 30.5952 30.5614 30.7699 30.4251 30.9943C30.2887 31.2159 30.2205 31.4687 30.2205 31.7528V35.75H28.9464Z" fill="#545454"/>
</svg>
