<svg width="34" height="50" viewBox="0 0 34 50" fill="none" xmlns="http://www.w3.org/2000/svg">
<ellipse cx="9.78717" cy="2.5974" rx="2.06061" ry="2.5974" fill="#0C7A41"/>
<ellipse cx="17.0001" cy="2.5974" rx="2.06061" ry="2.5974" fill="#0C7A41"/>
<ellipse cx="24.211" cy="2.5974" rx="2.06061" ry="2.5974" fill="#0C7A41"/>
<path d="M8.53977 38.1559C8.53977 39.0877 8.36932 39.8888 8.02841 40.5593C7.6875 41.2269 7.22017 41.7411 6.62642 42.1019C6.03551 42.4599 5.36364 42.6388 4.6108 42.6388C3.85511 42.6388 3.1804 42.4599 2.58665 42.1019C1.99574 41.7411 1.52983 41.2255 1.18892 40.555C0.848011 39.8846 0.677557 39.0849 0.677557 38.1559C0.677557 37.2241 0.848011 36.4244 1.18892 35.7567C1.52983 35.0863 1.99574 34.5721 2.58665 34.2141C3.1804 33.8533 3.85511 33.6729 4.6108 33.6729C5.36364 33.6729 6.03551 33.8533 6.62642 34.2141C7.22017 34.5721 7.6875 35.0863 8.02841 35.7567C8.36932 36.4244 8.53977 37.2241 8.53977 38.1559ZM7.2358 38.1559C7.2358 37.4457 7.12074 36.8477 6.89062 36.3619C6.66335 35.8732 6.35085 35.5039 5.95312 35.2539C5.55824 35.0011 5.1108 34.8746 4.6108 34.8746C4.10795 34.8746 3.65909 35.0011 3.2642 35.2539C2.86932 35.5039 2.55682 35.8732 2.3267 36.3619C2.09943 36.8477 1.9858 37.4457 1.9858 38.1559C1.9858 38.8661 2.09943 39.4656 2.3267 39.9542C2.55682 40.44 2.86932 40.8093 3.2642 41.0621C3.65909 41.3121 4.10795 41.4371 4.6108 41.4371C5.1108 41.4371 5.55824 41.3121 5.95312 41.0621C6.35085 40.8093 6.66335 40.44 6.89062 39.9542C7.12074 39.4656 7.2358 38.8661 7.2358 38.1559ZM13.1346 35.9741V36.9968H9.5593V35.9741H13.1346ZM10.5181 34.4059H11.7923V40.5977C11.7923 40.8448 11.8292 41.0309 11.9031 41.1559C11.9769 41.2781 12.0721 41.3619 12.1886 41.4073C12.3079 41.4499 12.4371 41.4712 12.5763 41.4712C12.6786 41.4712 12.7681 41.4641 12.8448 41.4499C12.9215 41.4357 12.9812 41.4244 13.0238 41.4158L13.2539 42.4684C13.18 42.4968 13.0749 42.5252 12.9386 42.5536C12.8022 42.5849 12.6317 42.6019 12.4272 42.6048C12.092 42.6104 11.7795 42.5508 11.4897 42.4258C11.1999 42.3008 10.9656 42.1076 10.7866 41.8462C10.6076 41.5849 10.5181 41.2567 10.5181 40.8619V34.4059ZM15.9588 38.6332V42.5195H14.6847V33.7923H15.9418V37.0394H16.0227C16.1761 36.6871 16.4105 36.4073 16.7259 36.1999C17.0412 35.9925 17.4531 35.8888 17.9616 35.8888C18.4105 35.8888 18.8026 35.9812 19.1378 36.1658C19.4759 36.3505 19.7372 36.6261 19.9219 36.9925C20.1094 37.3562 20.2031 37.8107 20.2031 38.3562V42.5195H18.929V38.5096C18.929 38.0295 18.8054 37.6573 18.5582 37.3931C18.3111 37.1261 17.9673 36.9925 17.527 36.9925C17.2259 36.9925 16.956 37.0565 16.7173 37.1843C16.4815 37.3121 16.2955 37.4996 16.1591 37.7468C16.0256 37.9911 15.9588 38.2866 15.9588 38.6332ZM24.7244 42.6516C24.0795 42.6516 23.5241 42.5138 23.0582 42.2383C22.5952 41.9599 22.2372 41.5692 21.9844 41.0664C21.7344 40.5607 21.6094 39.9684 21.6094 39.2894C21.6094 38.619 21.7344 38.0281 21.9844 37.5167C22.2372 37.0053 22.5895 36.6062 23.0412 36.3192C23.4957 36.0323 24.027 35.8888 24.6349 35.8888C25.0043 35.8888 25.3622 35.9499 25.7088 36.0721C26.0554 36.1942 26.3665 36.386 26.642 36.6474C26.9176 36.9087 27.1349 37.2482 27.294 37.6658C27.4531 38.0806 27.5327 38.5849 27.5327 39.1786V39.6303H22.3295V38.6758H26.2841C26.2841 38.3406 26.2159 38.0437 26.0795 37.7852C25.9432 37.5238 25.7514 37.3178 25.5043 37.1673C25.2599 37.0167 24.973 36.9414 24.6435 36.9414C24.2855 36.9414 23.973 37.0295 23.706 37.2056C23.4418 37.3789 23.2372 37.6062 23.0923 37.8874C22.9503 38.1658 22.8793 38.4684 22.8793 38.7951V39.5408C22.8793 39.9783 22.956 40.3505 23.1094 40.6573C23.2656 40.9641 23.483 41.1985 23.7614 41.3604C24.0398 41.5195 24.3651 41.5991 24.7372 41.5991C24.9787 41.5991 25.1989 41.565 25.3977 41.4968C25.5966 41.4258 25.7685 41.3207 25.9134 41.1815C26.0582 41.0423 26.169 40.8704 26.2457 40.6658L27.4517 40.8832C27.3551 41.2383 27.1818 41.5494 26.9318 41.8164C26.6847 42.0806 26.3736 42.2866 25.9986 42.4343C25.6264 42.5792 25.2017 42.6516 24.7244 42.6516ZM28.9464 42.5195V35.9741H30.1779V37.0138H30.2461C30.3654 36.6616 30.5756 36.3846 30.8768 36.1829C31.1808 35.9783 31.5245 35.8761 31.908 35.8761C31.9876 35.8761 32.0813 35.8789 32.1893 35.8846C32.3001 35.8903 32.3867 35.8974 32.4492 35.9059V37.1246C32.3981 37.1104 32.3072 37.0948 32.1765 37.0778C32.0458 37.0579 31.9151 37.0479 31.7844 37.0479C31.4833 37.0479 31.2148 37.1119 30.979 37.2397C30.7461 37.3647 30.5614 37.5394 30.4251 37.7638C30.2887 37.9854 30.2205 38.2383 30.2205 38.5224V42.5195H28.9464Z" fill="#0C7A41"/>
</svg>
