<svg width="28" height="45" viewBox="0 0 28 45" fill="none" xmlns="http://www.w3.org/2000/svg">
<rect y="0.550781" width="28" height="18.9" rx="3" fill="#979797"/>
<path d="M24.2803 1.49609C25.9371 1.49609 27.2803 2.83924 27.2803 4.49609V15.5059C27.2803 17.1627 25.9371 18.5059 24.2803 18.5059H18.4805V1.49609H24.2803ZM22.8809 3.38574C21.9088 3.38574 21.1201 4.23255 21.1201 5.27637C21.1202 6.32008 21.9089 7.16602 22.8809 7.16602C23.8526 7.1658 24.6405 6.31994 24.6406 5.27637C24.6406 4.23268 23.8527 3.38596 22.8809 3.38574Z" fill="white"/>
<path d="M3.95881 41.4492V32.7219H7.0696C7.74858 32.7219 8.31108 32.8455 8.7571 33.0927C9.20313 33.3398 9.53693 33.6779 9.75852 34.1069C9.98011 34.533 10.0909 35.0131 10.0909 35.5472C10.0909 36.0842 9.97869 36.5671 9.75426 36.9961C9.53267 37.4222 9.19744 37.7603 8.74858 38.0103C8.30256 38.2575 7.74148 38.381 7.06534 38.381H4.92614V37.2646H6.94602C7.375 37.2646 7.72301 37.1907 7.99006 37.043C8.2571 36.8924 8.45312 36.6879 8.57812 36.4293C8.70312 36.1708 8.76562 35.8768 8.76562 35.5472C8.76562 35.2177 8.70312 34.9251 8.57812 34.6694C8.45312 34.4137 8.25568 34.2134 7.9858 34.0685C7.71875 33.9237 7.36648 33.8512 6.92898 33.8512H5.27557V41.4492H3.95881ZM13.3786 41.5941C12.9638 41.5941 12.5888 41.5174 12.2536 41.364C11.9183 41.2077 11.6527 40.9819 11.4567 40.6864C11.2635 40.391 11.1669 40.0288 11.1669 39.5998C11.1669 39.2305 11.2379 38.9265 11.38 38.6879C11.522 38.4492 11.7138 38.2603 11.9553 38.1211C12.1967 37.9819 12.4666 37.8768 12.7649 37.8058C13.0632 37.7347 13.3672 37.6808 13.6768 37.6438C14.0689 37.5984 14.3871 37.5614 14.6314 37.533C14.8757 37.5018 15.0533 37.4521 15.1641 37.3839C15.2749 37.3157 15.3303 37.2049 15.3303 37.0515V37.0217C15.3303 36.6495 15.2251 36.3612 15.0149 36.1566C14.8075 35.9521 14.4979 35.8498 14.0859 35.8498C13.657 35.8498 13.3189 35.945 13.0717 36.1353C12.8274 36.3228 12.6584 36.5316 12.5646 36.7617L11.3672 36.489C11.5092 36.0913 11.7166 35.7702 11.9893 35.5259C12.2649 35.2788 12.5817 35.0998 12.9396 34.989C13.2976 34.8754 13.674 34.8185 14.0689 34.8185C14.3303 34.8185 14.6072 34.8498 14.8999 34.9123C15.1953 34.9719 15.4709 35.0827 15.7266 35.2447C15.9851 35.4066 16.1967 35.6381 16.3615 35.9393C16.5263 36.2376 16.6087 36.6254 16.6087 37.1026V41.4492H15.3643V40.5543H15.3132C15.2308 40.7191 15.1072 40.881 14.9425 41.0401C14.7777 41.1992 14.5661 41.3313 14.3075 41.4364C14.049 41.5415 13.7393 41.5941 13.3786 41.5941ZM13.6555 40.5714C14.0078 40.5714 14.3089 40.5018 14.5589 40.3626C14.8118 40.2234 15.0036 40.0415 15.1342 39.8171C15.2678 39.5898 15.3345 39.3469 15.3345 39.0884V38.2447C15.2891 38.2901 15.201 38.3327 15.0703 38.3725C14.9425 38.4094 14.7962 38.4421 14.6314 38.4705C14.4666 38.4961 14.3061 38.5202 14.1499 38.543C13.9936 38.5629 13.8629 38.5799 13.7578 38.5941C13.5107 38.6254 13.2848 38.6779 13.0803 38.7518C12.8786 38.8256 12.7166 38.9322 12.5945 39.0714C12.4751 39.2077 12.4155 39.3896 12.4155 39.6168C12.4155 39.9322 12.532 40.1708 12.7649 40.3327C12.9979 40.4918 13.2947 40.5714 13.6555 40.5714ZM18.8768 43.9038C18.6864 43.9038 18.5131 43.8881 18.3569 43.8569C18.2006 43.8285 18.0842 43.7972 18.0075 43.7631L18.3143 42.7191C18.5472 42.7816 18.7546 42.8086 18.9364 42.8001C19.1183 42.7915 19.2788 42.7234 19.418 42.5955C19.56 42.4677 19.685 42.2589 19.793 41.9691L19.9506 41.5344L17.5558 34.9038H18.9194L20.5771 39.9833H20.6452L22.3029 34.9038H23.6708L20.9734 42.3228C20.8484 42.6637 20.6893 42.9521 20.4961 43.1879C20.3029 43.4265 20.0728 43.6055 19.8058 43.7248C19.5387 43.8441 19.229 43.9038 18.8768 43.9038Z" fill="#545454"/>
</svg>
