<svg width="31" height="50" viewBox="0 0 31 50" fill="none" xmlns="http://www.w3.org/2000/svg">
<rect width="31" height="21.5262" rx="3" fill="#0C7A41"/>
<path d="M27.2041 1.07812C28.8608 1.07829 30.2041 2.42137 30.2041 4.07812V17.4521C30.2039 19.1087 28.8607 20.452 27.2041 20.4521H20.4609V1.07812H27.2041ZM25.332 3.23047C24.256 3.23068 23.3838 4.19506 23.3838 5.38379C23.384 6.57234 24.2561 7.53592 25.332 7.53613C26.4081 7.53613 27.2811 6.57247 27.2812 5.38379C27.2812 4.19493 26.4082 3.23047 25.332 3.23047Z" fill="white"/>
<path d="M4.28107 44.9141V36.1868H7.39187C8.07085 36.1868 8.63335 36.3104 9.07937 36.5575C9.52539 36.8047 9.8592 37.1428 10.0808 37.5717C10.3024 37.9979 10.4132 38.478 10.4132 39.0121C10.4132 39.549 10.301 40.032 10.0765 40.4609C9.85494 40.8871 9.51971 41.2251 9.07085 41.4751C8.62482 41.7223 8.06374 41.8459 7.38761 41.8459H5.2484V40.7294H7.26829C7.69727 40.7294 8.04528 40.6555 8.31232 40.5078C8.57937 40.3572 8.77539 40.1527 8.90039 39.8942C9.02539 39.6357 9.08789 39.3416 9.08789 39.0121C9.08789 38.6825 9.02539 38.3899 8.90039 38.1342C8.77539 37.8786 8.57795 37.6783 8.30806 37.5334C8.04102 37.3885 7.68874 37.3161 7.25124 37.3161H5.59783V44.9141H4.28107ZM13.7008 45.0589C13.286 45.0589 12.911 44.9822 12.5758 44.8288C12.2406 44.6726 11.975 44.4467 11.7789 44.1513C11.5858 43.8558 11.4892 43.4936 11.4892 43.0646C11.4892 42.6953 11.5602 42.3913 11.7022 42.1527C11.8443 41.9141 12.036 41.7251 12.2775 41.5859C12.519 41.4467 12.7889 41.3416 13.0872 41.2706C13.3855 41.1996 13.6895 41.1456 13.9991 41.1087C14.3912 41.0632 14.7093 41.0263 14.9537 40.9979C15.198 40.9666 15.3755 40.9169 15.4863 40.8487C15.5971 40.7805 15.6525 40.6697 15.6525 40.5163V40.4865C15.6525 40.1143 15.5474 39.826 15.3372 39.6214C15.1298 39.4169 14.8201 39.3146 14.4082 39.3146C13.9792 39.3146 13.6412 39.4098 13.394 39.6001C13.1497 39.7876 12.9806 39.9964 12.8869 40.2266L11.6895 39.9538C11.8315 39.5561 12.0389 39.2351 12.3116 38.9908C12.5872 38.7436 12.9039 38.5646 13.2619 38.4538C13.6199 38.3402 13.9963 38.2834 14.3912 38.2834C14.6525 38.2834 14.9295 38.3146 15.2221 38.3771C15.5176 38.4368 15.7931 38.5476 16.0488 38.7095C16.3074 38.8714 16.519 39.103 16.6838 39.4041C16.8485 39.7024 16.9309 40.0902 16.9309 40.5675V44.9141H15.6866V44.0192H15.6355C15.5531 44.1839 15.4295 44.3459 15.2647 44.505C15.1 44.6641 14.8883 44.7962 14.6298 44.9013C14.3713 45.0064 14.0616 45.0589 13.7008 45.0589ZM13.9778 44.0362C14.3301 44.0362 14.6312 43.9666 14.8812 43.8274C15.1341 43.6882 15.3258 43.5064 15.4565 43.282C15.59 43.0547 15.6568 42.8118 15.6568 42.5533V41.7095C15.6113 41.755 15.5233 41.7976 15.3926 41.8374C15.2647 41.8743 15.1184 41.907 14.9537 41.9354C14.7889 41.9609 14.6284 41.9851 14.4721 42.0078C14.3159 42.0277 14.1852 42.0447 14.0801 42.0589C13.8329 42.0902 13.6071 42.1428 13.4025 42.2166C13.2008 42.2905 13.0389 42.397 12.9167 42.5362C12.7974 42.6726 12.7377 42.8544 12.7377 43.0817C12.7377 43.397 12.8542 43.6357 13.0872 43.7976C13.3201 43.9567 13.617 44.0362 13.9778 44.0362ZM19.199 47.3686C19.0087 47.3686 18.8354 47.353 18.6792 47.3217C18.5229 47.2933 18.4064 47.2621 18.3297 47.228L18.6365 46.1839C18.8695 46.2464 19.0769 46.2734 19.2587 46.2649C19.4405 46.2564 19.601 46.1882 19.7402 46.0604C19.8823 45.9325 20.0073 45.7237 20.1152 45.4339L20.2729 44.9993L17.878 38.3686H19.2417L20.8993 43.4482H20.9675L22.6252 38.3686H23.9931L21.2956 45.7876C21.1706 46.1286 21.0115 46.4169 20.8184 46.6527C20.6252 46.8913 20.3951 47.0703 20.128 47.1896C19.861 47.3089 19.5513 47.3686 19.199 47.3686Z" fill="#0C7A41"/>
</svg>
