<svg width="32" height="32" viewBox="0 0 32 32" fill="none" xmlns="http://www.w3.org/2000/svg">
<path d="M8 11L10.5274 26.1644C10.6078 26.6466 11.025 27 11.5138 27H20.4862C20.975 27 21.3922 26.6466 21.4726 26.1644L24 11" stroke="#666666" stroke-width="1.5" stroke-linecap="round"/>
<path d="M5.49289 9.65575L6.35245 7.31149C6.6413 6.52372 7.39116 6 8.23021 6H24.4682C24.8878 6 25.2627 6.26186 25.4071 6.65575L26.5071 9.65575C26.7464 10.3084 26.2633 11 25.5682 11H6.43177C5.73667 11 5.2536 10.3084 5.49289 9.65575Z" stroke="#666666" stroke-width="1.5" stroke-linecap="round"/>
<path d="M18 18L16 14L12 22H20L19.3333 20.6667" stroke="#666666" stroke-linecap="round" stroke-linejoin="round"/>
<path d="M16.2441 17.4727L17.9516 18.2728L18.7517 16.5654" stroke="#666666" stroke-linecap="round" stroke-linejoin="round"/>
</svg>
