<svg width="33" height="51" viewBox="0 0 33 51" fill="none" xmlns="http://www.w3.org/2000/svg">
<path d="M23.375 0.0625C25.7912 0.0625141 27.7499 1.71739 27.75 3.75879V4.49805H26.0811L23.6338 25.9375H9.80371L7.18066 4.49805H5.25V3.75879C5.25009 1.71738 7.20882 0.0625016 9.625 0.0625H23.375ZM16.625 8.93359C14.2088 8.9336 12.25 10.5894 12.25 12.6309C12.2503 14.6721 14.2089 16.3271 16.625 16.3271C19.0411 16.3271 20.9997 14.6721 21 12.6309C21 10.5894 19.0412 8.93359 16.625 8.93359Z" fill="#979797"/>
<path d="M8.53977 43.5739C8.53977 44.5057 8.36932 45.3068 8.02841 45.9773C7.6875 46.6449 7.22017 47.1591 6.62642 47.5199C6.03551 47.8778 5.36364 48.0568 4.6108 48.0568C3.85511 48.0568 3.1804 47.8778 2.58665 47.5199C1.99574 47.1591 1.52983 46.6435 1.18892 45.973C0.848011 45.3026 0.677557 44.5028 0.677557 43.5739C0.677557 42.642 0.848011 41.8423 1.18892 41.1747C1.52983 40.5043 1.99574 39.9901 2.58665 39.6321C3.1804 39.2713 3.85511 39.0909 4.6108 39.0909C5.36364 39.0909 6.03551 39.2713 6.62642 39.6321C7.22017 39.9901 7.6875 40.5043 8.02841 41.1747C8.36932 41.8423 8.53977 42.642 8.53977 43.5739ZM7.2358 43.5739C7.2358 42.8636 7.12074 42.2656 6.89062 41.7798C6.66335 41.2912 6.35085 40.9219 5.95312 40.6719C5.55824 40.419 5.1108 40.2926 4.6108 40.2926C4.10795 40.2926 3.65909 40.419 3.2642 40.6719C2.86932 40.9219 2.55682 41.2912 2.3267 41.7798C2.09943 42.2656 1.9858 42.8636 1.9858 43.5739C1.9858 44.2841 2.09943 44.8835 2.3267 45.3722C2.55682 45.858 2.86932 46.2273 3.2642 46.4801C3.65909 46.7301 4.10795 46.8551 4.6108 46.8551C5.1108 46.8551 5.55824 46.7301 5.95312 46.4801C6.35085 46.2273 6.66335 45.858 6.89062 45.3722C7.12074 44.8835 7.2358 44.2841 7.2358 43.5739ZM10.0792 47.9375V41.392H11.3107V42.4318H11.3789C11.4982 42.0795 11.7085 41.8026 12.0096 41.6009C12.3136 41.3963 12.6573 41.294 13.0408 41.294C13.1204 41.294 13.2141 41.2969 13.3221 41.3026C13.4329 41.3082 13.5195 41.3153 13.582 41.3239V42.5426C13.5309 42.5284 13.44 42.5128 13.3093 42.4957C13.1786 42.4759 13.0479 42.4659 12.9173 42.4659C12.6161 42.4659 12.3477 42.5298 12.1119 42.6577C11.8789 42.7827 11.6942 42.9574 11.5579 43.1818C11.4215 43.4034 11.3533 43.6562 11.3533 43.9403V47.9375H10.0792ZM16.9006 48.0653C16.3722 48.0653 15.9006 47.9304 15.4858 47.6605C15.0739 47.3878 14.75 47 14.5142 46.4972C14.2813 45.9915 14.1648 45.3849 14.1648 44.6776C14.1648 43.9702 14.2827 43.3651 14.5185 42.8622C14.7571 42.3594 15.0838 41.9744 15.4986 41.7074C15.9134 41.4403 16.3835 41.3068 16.9091 41.3068C17.3153 41.3068 17.642 41.375 17.8892 41.5114C18.1392 41.6449 18.3324 41.8011 18.4688 41.9801C18.608 42.1591 18.7159 42.3168 18.7926 42.4531H18.8693V39.2102H20.1435V47.9375H18.8991V46.919H18.7926C18.7159 47.0582 18.6051 47.2173 18.4602 47.3963C18.3182 47.5753 18.1222 47.7315 17.8722 47.8651C17.6222 47.9986 17.2983 48.0653 16.9006 48.0653ZM17.1818 46.9787C17.5483 46.9787 17.858 46.8821 18.1108 46.6889C18.3665 46.4929 18.5597 46.2216 18.6903 45.875C18.8239 45.5284 18.8906 45.125 18.8906 44.6648C18.8906 44.2102 18.8253 43.8125 18.6946 43.4716C18.5639 43.1307 18.3722 42.8651 18.1193 42.6747C17.8665 42.4844 17.554 42.3892 17.1818 42.3892C16.7983 42.3892 16.4787 42.4886 16.223 42.6875C15.9673 42.8864 15.7741 43.1577 15.6435 43.5014C15.5156 43.8452 15.4517 44.233 15.4517 44.6648C15.4517 45.1023 15.517 45.4957 15.6477 45.8452C15.7784 46.1946 15.9716 46.4716 16.2273 46.6761C16.4858 46.8778 16.804 46.9787 17.1818 46.9787ZM24.783 48.0696C24.1381 48.0696 23.5827 47.9318 23.1168 47.6562C22.6538 47.3778 22.2958 46.9872 22.043 46.4844C21.793 45.9787 21.668 45.3864 21.668 44.7074C21.668 44.0369 21.793 43.446 22.043 42.9347C22.2958 42.4233 22.6481 42.0241 23.0998 41.7372C23.5543 41.4503 24.0856 41.3068 24.6935 41.3068C25.0629 41.3068 25.4208 41.3679 25.7674 41.4901C26.114 41.6122 26.4251 41.804 26.7006 42.0653C26.9762 42.3267 27.1935 42.6662 27.3526 43.0838C27.5117 43.4986 27.5913 44.0028 27.5913 44.5966V45.0483H22.3881V44.0938H26.3427C26.3427 43.7585 26.2745 43.4616 26.1381 43.2031C26.0018 42.9418 25.81 42.7358 25.5629 42.5852C25.3185 42.4347 25.0316 42.3594 24.7021 42.3594C24.3441 42.3594 24.0316 42.4474 23.7646 42.6236C23.5004 42.7969 23.2958 43.0241 23.1509 43.3054C23.0089 43.5838 22.9379 43.8864 22.9379 44.2131V44.9588C22.9379 45.3963 23.0146 45.7685 23.168 46.0753C23.3242 46.3821 23.5415 46.6165 23.82 46.7784C24.0984 46.9375 24.4237 47.017 24.7958 47.017C25.0373 47.017 25.2575 46.983 25.4563 46.9148C25.6552 46.8437 25.8271 46.7386 25.9719 46.5994C26.1168 46.4602 26.2276 46.2884 26.3043 46.0838L27.5103 46.3011C27.4137 46.6562 27.2404 46.9673 26.9904 47.2344C26.7433 47.4986 26.4322 47.7045 26.0572 47.8523C25.685 47.9972 25.2603 48.0696 24.783 48.0696ZM29.005 47.9375V41.392H30.2365V42.4318H30.3047C30.424 42.0795 30.6342 41.8026 30.9354 41.6009C31.2393 41.3963 31.5831 41.294 31.9666 41.294C32.0462 41.294 32.1399 41.2969 32.2479 41.3026C32.3587 41.3082 32.4453 41.3153 32.5078 41.3239V42.5426C32.4567 42.5284 32.3658 42.5128 32.2351 42.4957C32.1044 42.4759 31.9737 42.4659 31.843 42.4659C31.5419 42.4659 31.2734 42.5298 31.0376 42.6577C30.8047 42.7827 30.62 42.9574 30.4837 43.1818C30.3473 43.4034 30.2791 43.6562 30.2791 43.9403V47.9375H29.005Z" fill="#545454"/>
</svg>
